<svg xmlns="http://www.w3.org/2000/svg" viewBox="0 0 100 100" width="100" height="100">
  <!-- Red triangular background -->
  <polygon points="0,0 100,50 0,100" fill="#d13232" />
  
  <!-- GRYC Letters -->
  <g fill="white" transform="translate(18,30) scale(0.85)">
    <!-- G -->
    <path d="M12,24 C5.4,24 0,18.6 0,12 C0,5.4 5.4,0 12,0 C16.2,0 20,2.4 21.6,6 H16.8 C15.6,4.2 13.8,3 12,3 C7.2,3 3,7.2 3,12 C3,16.8 7.2,21 12,21 C15.6,21 18.6,18.6 19.8,15 H12 V12 H24 V13.2 C24,19.2 18.6,24 12,24 Z" />
    
    <!-- R -->
    <path d="M0,0 H12 C18.6,0 24,5.4 24,12 C24,18.6 18.6,24 12,24 H0 Z M3,3 V21 H12 C16.8,21 21,16.8 21,12 C21,7.2 16.8,3 12,3 H3 Z M12,9 H7.5 V15 H12 C13.2,15 15,13.8 15,12 C15,10.2 13.8,9 12,9 Z" transform="translate(26,0)" />
    
    <!-- Y -->
    <path d="M9.6,24 H14.4 L24,0 H19.2 L12,16.8 L4.8,0 H0 Z" transform="translate(52,0)" />
    
    <!-- C -->
    <path d="M12,24 C5.4,24 0,18.6 0,12 C0,5.4 5.4,0 12,0 C16.2,0 19.8,2.4 21.6,6 H17.4 C16.2,4.2 14.4,3 12,3 C7.2,3 3,7.2 3,12 C3,16.8 7.2,21 12,21 C14.4,21 16.8,19.8 18,18 H22.2 C20.4,21.6 16.8,24 12,24 Z" transform="translate(0,26)" />
  </g>
  
  <!-- Yellow cross -->
  <line x1="20" y1="20" x2="80" y2="80" stroke="#ffc72c" stroke-width="3" />
  <line x1="80" y1="20" x2="20" y2="80" stroke="#ffc72c" stroke-width="3" />
</svg>